<svg xmlns="http://www.w3.org/2000/svg" width="80" height="54" viewBox="0 0 80 54">
  <!-- seigaiha (blue-ocean-wave) scallop band; washi fill over transparent -->
  <g>
    <circle cx="0" cy="54" r="40" fill="#efe8d9"/>
    <circle cx="80" cy="54" r="40" fill="#efe8d9"/>
    <path d="M -30 54 A 30 30 0 0 1 30 54" fill="none" stroke="#d9cfb8" stroke-width="2"/>
    <path d="M -20 54 A 20 20 0 0 1 20 54" fill="none" stroke="#d9cfb8" stroke-width="2"/>
    <path d="M 50 54 A 30 30 0 0 1 110 54" fill="none" stroke="#d9cfb8" stroke-width="2"/>
    <path d="M 60 54 A 20 20 0 0 1 100 54" fill="none" stroke="#d9cfb8" stroke-width="2"/>
    <circle cx="40" cy="54" r="40" fill="#efe8d9"/>
    <path d="M 10 54 A 30 30 0 0 1 70 54" fill="none" stroke="#d9cfb8" stroke-width="2"/>
    <path d="M 20 54 A 20 20 0 0 1 60 54" fill="none" stroke="#d9cfb8" stroke-width="2"/>
    <path d="M 30 54 A 10 10 0 0 1 50 54" fill="none" stroke="#d9cfb8" stroke-width="2"/>
  </g>
</svg>
